<svg width="25" height="25" viewBox="0 0 25 25" fill="none" xmlns="http://www.w3.org/2000/svg">
<path d="M12.5 0C5.625 0 0 5.625 0 12.5C0 19.375 5.625 25 12.5 25C19.375 25 25 19.375 25 12.5C25 5.625 19.375 0 12.5 0ZM12.5 22.5C6.9875 22.5 2.5 18.0125 2.5 12.5C2.5 6.9875 6.9875 2.5 12.5 2.5C18.0125 2.5 22.5 6.9875 22.5 12.5C22.5 18.0125 18.0125 22.5 12.5 22.5Z" fill="#543C7F"/>
<path d="M7.77469 7.77469C7.86165 7.68761 7.96492 7.61853 8.0786 7.5714C8.19228 7.52426 8.31413 7.5 8.43719 7.5C8.56026 7.5 8.68211 7.52426 8.79579 7.5714C8.90947 7.61853 9.01274 7.68761 9.09969 7.77469L12.4997 11.1734L15.8997 7.77469C15.9867 7.68769 16.09 7.61868 16.2037 7.5716C16.3173 7.52451 16.4392 7.50028 16.5622 7.50028C16.6852 7.50028 16.8071 7.52451 16.9207 7.5716C17.0344 7.61868 17.1377 7.68769 17.2247 7.77469C17.3117 7.86169 17.3807 7.96498 17.4278 8.07865C17.4749 8.19232 17.4991 8.31416 17.4991 8.43719C17.4991 8.56023 17.4749 8.68206 17.4278 8.79574C17.3807 8.90941 17.3117 9.01269 17.2247 9.09969L13.8259 12.4997L17.2247 15.8997C17.4004 16.0754 17.4991 16.3137 17.4991 16.5622C17.4991 16.8107 17.4004 17.049 17.2247 17.2247C17.049 17.4004 16.8107 17.4991 16.5622 17.4991C16.3137 17.4991 16.0754 17.4004 15.8997 17.2247L12.4997 13.8259L9.09969 17.2247C8.92399 17.4004 8.68568 17.4991 8.43719 17.4991C8.18871 17.4991 7.9504 17.4004 7.77469 17.2247C7.59899 17.049 7.50028 16.8107 7.50028 16.5622C7.50028 16.3137 7.59899 16.0754 7.77469 15.8997L11.1734 12.4997L7.77469 9.09969C7.68761 9.01274 7.61853 8.90947 7.5714 8.79579C7.52426 8.68211 7.5 8.56026 7.5 8.43719C7.5 8.31413 7.52426 8.19228 7.5714 8.0786C7.61853 7.96492 7.68761 7.86165 7.77469 7.77469Z" fill="#543C7F"/>
</svg>
